<svg xmlns="http://www.w3.org/2000/svg" width="40.623" height="31.918" viewBox="0 0 40.623 31.918">
  <g id="_001-envelope" data-name="001-envelope" transform="translate(0)">
    <g id="Group_44" data-name="Group 44" transform="translate(0 0)">
      <path id="Path_6159" data-name="Path 6159" d="M3.9,64.658q.771.544,4.647,3.23t5.939,4.137q.227.159.963.692t1.224.862q.487.328,1.179.737a6.839,6.839,0,0,0,1.3.611,3.592,3.592,0,0,0,1.133.2h.046a3.6,3.6,0,0,0,1.134-.2,6.846,6.846,0,0,0,1.3-.611q.691-.408,1.179-.737t1.224-.862q.737-.533.964-.692,2.085-1.45,10.609-7.367a10.769,10.769,0,0,0,2.765-2.788,5.986,5.986,0,0,0,1.111-3.423A3.658,3.658,0,0,0,37,54.82H3.627A3.237,3.237,0,0,0,.941,56,4.576,4.576,0,0,0,0,58.946,5.3,5.3,0,0,0,1.247,62.04,11.252,11.252,0,0,0,3.9,64.658Z" transform="translate(0 -54.82)" fill="#80828a"/>
      <path id="Path_6160" data-name="Path 6160" d="M38.356,186.409q-7.435,5.032-11.289,7.821-1.292.952-2.1,1.485a12.94,12.94,0,0,1-2.142,1.088,6.523,6.523,0,0,1-2.493.555h-.046A6.525,6.525,0,0,1,17.8,196.8a12.946,12.946,0,0,1-2.142-1.088q-.8-.532-2.1-1.485-3.06-2.244-11.266-7.821A12.007,12.007,0,0,1,0,184.437v18A3.492,3.492,0,0,0,1.065,205a3.492,3.492,0,0,0,2.562,1.066H37a3.638,3.638,0,0,0,3.627-3.628v-18A12.5,12.5,0,0,1,38.356,186.409Z" transform="translate(0 -174.146)" fill="#80828a"/>
    </g>
  </g>
</svg>
