<svg xmlns="http://www.w3.org/2000/svg" width="20.356" height="20.34" viewBox="0 0 20.356 20.34">
  <g id="_002-behance" data-name="002-behance" transform="translate(0 0)">
    <g id="Group_46" data-name="Group 46" transform="translate(5.65 7.425)">
      <g id="Group_45" data-name="Group 45">
        <path id="Path_6161" data-name="Path 6161" d="M142.228,184.2H140v1.776h2.082c.371,0,.694-.1.694-.952S142.228,184.2,142.228,184.2Z" transform="translate(-140 -184.196)" fill="#80828a"/>
      </g>
    </g>
    <g id="Group_48" data-name="Group 48" transform="translate(5.65 10.493)">
      <g id="Group_47" data-name="Group 47">
        <path id="Path_6162" data-name="Path 6162" d="M142.228,260.2H140v2.26h2.1c.323,0,.936-.129.936-1.1C143.051,260.216,142.228,260.2,142.228,260.2Z" transform="translate(-140 -260.2)" fill="#80828a"/>
      </g>
    </g>
    <g id="Group_50" data-name="Group 50" transform="translate(0 0)">
      <g id="Group_49" data-name="Group 49">
        <path id="Path_6163" data-name="Path 6163" d="M15.239.2H5.1A5.112,5.112,0,0,0,0,5.3V15.455A5.108,5.108,0,0,0,5.1,20.54H15.255a5.112,5.112,0,0,0,5.1-5.1V5.3A5.136,5.136,0,0,0,15.239.2ZM11.946,6.657h3.39v.807h-3.39Zm-1.582,5.311a2.54,2.54,0,0,1-2.486,2.6h-4V6.173H7.861a2.05,2.05,0,0,1,2.228,2.2A1.387,1.387,0,0,1,8.895,9.934C10.477,9.918,10.364,11.968,10.364,11.968Zm6.086-.145H12.365c0,1.614,1.388,1.485,1.388,1.485,1.308,0,1.259-.839,1.259-.839H16.4c0,2.26-2.7,2.163-2.7,2.163a2.9,2.9,0,0,1-3.019-3.18s0-3.2,3.019-3.2C16.885,8.239,16.449,11.823,16.449,11.823Z" transform="translate(0 -0.2)" fill="#80828a"/>
      </g>
    </g>
    <g id="Group_52" data-name="Group 52" transform="translate(12.349 9.217)">
      <g id="Group_51" data-name="Group 51">
        <path id="Path_6164" data-name="Path 6164" d="M307.388,228.6A1.457,1.457,0,0,0,306,229.875h2.583A1.213,1.213,0,0,0,307.388,228.6Z" transform="translate(-306 -228.6)" fill="#80828a"/>
      </g>
    </g>
  </g>
</svg>
