<svg xmlns="http://www.w3.org/2000/svg" width="20.518" height="20.518" viewBox="0 0 20.518 20.518">
  <g id="_003-linkedin-logo" data-name="003-linkedin-logo" transform="translate(0 0)">
    <g id="post-linkedin" transform="translate(0 0)">
      <path id="Path_6165" data-name="Path 6165" d="M18.466,0H2.052A2.058,2.058,0,0,0,0,2.052V18.466a2.058,2.058,0,0,0,2.052,2.052H18.466a2.058,2.058,0,0,0,2.052-2.052V2.052A2.058,2.058,0,0,0,18.466,0ZM6.155,17.44H3.078V8.207H6.155ZM4.617,6.463A1.847,1.847,0,1,1,6.463,4.617,1.839,1.839,0,0,1,4.617,6.463ZM17.44,17.44H14.363V12a1.539,1.539,0,0,0-3.078,0V17.44H8.207V8.207h3.078V9.438A3.314,3.314,0,0,1,13.85,8a3.635,3.635,0,0,1,3.591,3.591Z" transform="translate(0 0)" fill="#80828a"/>
    </g>
  </g>
</svg>
