<svg id="Component_2" data-name="Component 2" xmlns="http://www.w3.org/2000/svg" width="20.059" height="20.059" viewBox="0 0 20.059 20.059">
  <path id="Path_9" data-name="Path 9" d="M17.986.156H3.784A2.93,2.93,0,0,0,.855,3.085v14.2a2.93,2.93,0,0,0,2.929,2.929h14.2a2.93,2.93,0,0,0,2.928-2.929V3.085A2.93,2.93,0,0,0,17.986.156Zm-7.1,6.268a3.761,3.761,0,1,1-3.761,3.761A3.762,3.762,0,0,1,10.884,6.424Zm7.943,11.283a.418.418,0,0,1-.421.421H3.362a.418.418,0,0,1-.421-.421V8.932H5.165a5.848,5.848,0,1,0,11.44,0h2.223Zm0-12.537a.418.418,0,0,1-.421.421H15.9a.418.418,0,0,1-.421-.421V2.663a.418.418,0,0,1,.421-.421h2.507a.418.418,0,0,1,.421.421Z" transform="translate(-0.855 -0.156)" fill="#80828a" fill-rule="evenodd"/>
</svg>
