<svg id="github" xmlns="http://www.w3.org/2000/svg" width="20.728" height="16.407" viewBox="0 0 20.728 16.407">
  <path id="Path_6166" data-name="Path 6166" d="M10.612,18.906c3.221,0,7.72.078,9.356-3.2a9.173,9.173,0,0,0,.756-4.059h0a7.316,7.316,0,0,0-1.684-4.88,4.944,4.944,0,0,0-.3-4.273A6.715,6.715,0,0,0,14.087,4a16.473,16.473,0,0,0-7.3.035A6.792,6.792,0,0,0,2.088,2.5a4.948,4.948,0,0,0-.3,4.3,8.339,8.339,0,0,0-.92,8.913c1.7,3.312,6.468,3.2,9.741,3.2ZM6.045,10.279a17.594,17.594,0,0,1,2.418.256c2.952.449,4.5-.256,6.312-.256a3.241,3.241,0,0,1,3.173,3.529c0,3.755-3.467,4.328-6.5,4.328-2.089-.141-8.575.843-8.575-4.328a3.24,3.24,0,0,1,3.173-3.529Z" transform="translate(0.003 -2.499)" fill="#80828a"/>
  <path id="Path_6167" data-name="Path 6167" d="M16.4,17.579c1.114,0,1.585-1.461,1.585-2.355s-.471-2.355-1.585-2.355S14.82,14.33,14.82,15.224s.471,2.355,1.585,2.355Z" transform="translate(-2.02 -3.914)" fill="#80828a"/>
  <path id="Path_6168" data-name="Path 6168" d="M7.22,17.579c1.114,0,1.585-1.461,1.585-2.355S8.333,12.87,7.22,12.87s-1.585,1.461-1.585,2.355.471,2.354,1.585,2.354Z" transform="translate(-0.766 -3.914)" fill="#80828a"/>
</svg>
