<svg xmlns="http://www.w3.org/2000/svg" width="30.873" height="30.873" viewBox="0 0 30.873 30.873">
  <path id="Path_5084" data-name="Path 5084" d="M18.437-1589.547a7.016,7.016,0,0,1-7.017-7.017,7.016,7.016,0,0,1,7.017-7.017,7.016,7.016,0,0,1,7.017,7.017,7.016,7.016,0,0,1-7.017,7.017m15.39-8.106a1.383,1.383,0,0,0-1.121-1.221l-3.461-.69a10.97,10.97,0,0,0-.85-2.171l2-2.995a1.388,1.388,0,0,0-.058-1.643,15.569,15.569,0,0,0-1.7-1.756,1.384,1.384,0,0,0-1.677-.085l-2.906,1.941a11.2,11.2,0,0,0-2.341-1.029l-.7-3.5a1.41,1.41,0,0,0-1.25-1.128c-.436-.042-.878-.067-1.326-.067-.312,0-.619.013-.926.034a1.428,1.428,0,0,0-1.318,1.131l-.688,3.445a11.246,11.246,0,0,0-2.515,1.012l-2.936-1.958a1.381,1.381,0,0,0-1.662.073,15.349,15.349,0,0,0-1.656,1.656,1.381,1.381,0,0,0-.073,1.661l1.959,2.936a11.175,11.175,0,0,0-1.013,2.515l-3.444.688a1.428,1.428,0,0,0-1.132,1.318c-.021.306-.034.615-.034.926,0,.448.025.89.067,1.326a1.411,1.411,0,0,0,1.128,1.25l3.5.7a11.2,11.2,0,0,0,1.029,2.342l-1.939,2.906a1.384,1.384,0,0,0,.084,1.677,15.541,15.541,0,0,0,1.756,1.7,1.383,1.383,0,0,0,1.643.057l2.995-2a11.158,11.158,0,0,0,2.171.85l.69,3.461a1.383,1.383,0,0,0,1.222,1.121c.358.029.721.046,1.088.046.472,0,.936-.028,1.395-.073a1.416,1.416,0,0,0,1.249-1.128l.7-3.516a11.225,11.225,0,0,0,2.015-.854l2.948,1.968a1.383,1.383,0,0,0,1.657-.068,15.436,15.436,0,0,0,1.8-1.8,1.385,1.385,0,0,0,.069-1.657L28.3-1591.2a11.265,11.265,0,0,0,.853-2.015l3.517-.7a1.416,1.416,0,0,0,1.127-1.249,13.878,13.878,0,0,0,.073-1.4c0-.368-.017-.73-.046-1.089" transform="translate(-3 1612)" fill="#80828a" fill-rule="evenodd"/>
</svg>
