<svg xmlns="http://www.w3.org/2000/svg" width="35.693" height="35.368" viewBox="0 0 35.693 35.368">
  <g id="ArtButton" transform="translate(35.693 6.047) rotate(135)">
    <path id="Path_5378" data-name="Path 5378" d="M2.208,8.448c.1,0,.193-.125.252-.338L4.353,1.352a2.1,2.1,0,0,0,.03-.884C4.329.181,4.22,0,4.1,0H.315C.2,0,.087.181.033.467A2.134,2.134,0,0,0,0,.845a1.935,1.935,0,0,0,.063.507L1.956,8.11c.059.213.153.338.252.338" transform="translate(35.315 6.714) rotate(-90)" fill="#b23d49" fill-rule="evenodd"/>
    <path id="Path_6113" data-name="Path 6113" d="M34.9,1.71H33.238V.855c0-.47-.748-.855-1.662-.855H1.662C.748,0,0,.385,0,.855V7.7c0,.47.748.855,1.662.855H31.576c.914,0,1.662-.385,1.662-.855V6.842H34.9c.917,0,1.662-.383,1.662-.855V2.566c0-.472-.745-.855-1.662-.855" transform="translate(0 0)" fill="#80828a" fill-rule="evenodd"/>
  </g>
</svg>
